# xmcd CD database file
#
# Track frame offsets:
#	150
#	15405
#	35478
#	57415
#	75683
#	98256
#	109293
#	128169
#	147220
#	159406
#	185455
#	195378
#
# Disc length: 2893 seconds
#
# Revision: 0
# Processed by: cddbd v1.5.1PL0 Copyright (c) Steve Scherf et al.
# Submitted via: CDex 1.51
#
DISCID=910b4b0c
DTITLE=ちぇるしぃグミ - パーフェクトセレクション 〜CLANNAD〜
DYEAR=2004
DGENRE=Game
TTITLE0=汐
TTITLE1=それは風のように
TTITLE2=は〜りぃすたーふぃっしゅ
TTITLE3=彼女の本気
TTITLE4=Etude pour les petites supercordes
TTITLE5=同じ高みへ
TTITLE6=資料室のお茶会
TTITLE7=願いが叶う場所
TTITLE8=潮鳴り
TTITLE9=空に光る
TTITLE10=白詰草
TTITLE11=小さな手のひら
EXTD=YEAR: 2004
EXTT0=
EXTT1=
EXTT2=
EXTT3=
EXTT4=
EXTT5=
EXTT6=
EXTT7=
EXTT8=
EXTT9=
EXTT10=
EXTT11=
PLAYORDER=
